<?xml version="1.0" encoding="UTF-8" standalone="no"?>
<svg
   xmlns:dc="http://purl.org/dc/elements/1.1/"
   xmlns:cc="http://creativecommons.org/ns#"
   xmlns:rdf="http://www.w3.org/1999/02/22-rdf-syntax-ns#"
   xmlns:svg="http://www.w3.org/2000/svg"
   xmlns="http://www.w3.org/2000/svg"
   xmlns:sodipodi="http://sodipodi.sourceforge.net/DTD/sodipodi-0.dtd"
   xmlns:inkscape="http://www.inkscape.org/namespaces/inkscape"
   width="300"
   height="70"
   viewBox="0 0 79.374998 18.520833"
   version="1.1"
   id="svg1132"
   inkscape:version="1.0.2-2 (e86c870879, 2021-01-15)"
   sodipodi:docname="logo_home.svg">
  <defs
     id="defs1126">
    <inkscape:path-effect
       effect="fillet_chamfer"
       id="path-effect1836"
       is_visible="true"
       lpeversion="1"
       satellites_param="F,0,0,1,0,0,0,1 @ F,0,1,1,0,0.26458333,0,1 @ F,0,1,1,0,0.26458333,0,1 @ F,0,0,1,0,0,0,1 @ F,0,0,1,0,0,0,1 @ F,0,0,1,0,0,0,1 @ F,0,0,1,0,0,0,1 @ F,0,0,1,0,0,0,1 @ F,0,0,1,0,0,0,1"
       unit="px"
       method="auto"
       mode="F"
       radius="1"
       chamfer_steps="1"
       flexible="false"
       use_knot_distance="true"
       apply_no_radius="true"
       apply_with_radius="true"
       only_selected="true"
       hide_knots="false" />
  </defs>
  <sodipodi:namedview
     id="base"
     pagecolor="#ffffff"
     bordercolor="#666666"
     borderopacity="1.0"
     inkscape:pageopacity="0.0"
     inkscape:pageshadow="2"
     inkscape:zoom="2.3156936"
     inkscape:cx="103.4558"
     inkscape:cy="-63.038698"
     inkscape:document-units="mm"
     inkscape:current-layer="layer1"
     inkscape:document-rotation="0"
     showgrid="false"
     units="px"
     inkscape:window-width="1920"
     inkscape:window-height="1027"
     inkscape:window-x="1912"
     inkscape:window-y="-8"
     inkscape:window-maximized="1" />
  <metadata
     id="metadata1129">
    <rdf:RDF>
      <cc:Work
         rdf:about="">
        <dc:format>image/svg+xml</dc:format>
        <dc:type
           rdf:resource="http://purl.org/dc/dcmitype/StillImage" />
        <dc:title></dc:title>
      </cc:Work>
    </rdf:RDF>
  </metadata>
  <g
     inkscape:label="Layer 1"
     inkscape:groupmode="layer"
     id="layer1">
    <g
       id="g1811"
       transform="matrix(3.0579283,0,0,3.0579283,-0.79418142,0.36057057)">
      <g
         id="g1822"
         transform="matrix(0.37563903,0,0,0.37563903,-64.288753,-32.575173)">
        <g
           id="g1810">
          <g
             id="g1804">
            <g
               aria-label="PY"
               id="g1800"
               style="font-style:normal;font-weight:normal;font-size:2.85476px;line-height:1.25;font-family:sans-serif;fill:#dce1ec;fill-opacity:1;stroke:none;stroke-width:0.0713691"
               transform="translate(-0.108475,-0.0784345)">
              <path
                 d="m 196.06915,94.086075 c 0,-0.336862 -0.27406,-0.610919 -0.61092,-0.610919 h -0.80504 v 2.14107 h 0.34257 v -0.919233 h 0.46247 c 0.33686,0 0.61092,-0.274056 0.61092,-0.610918 z m -0.34257,0 c 0,0.171285 -0.11134,0.311169 -0.28262,0.311169 h -0.4482 v -0.622338 h 0.4482 c 0.17128,0 0.28262,0.139883 0.28262,0.311169 z"
                 style="font-style:normal;font-variant:normal;font-weight:normal;font-stretch:normal;font-family:'Ano Bold';-inkscape-font-specification:'Ano Bold, ';fill:#dce1ec;fill-opacity:1;stroke-width:0.0713691"
                 id="path1796" />
              <path
                 d="m 197.84548,93.475156 -0.61378,0.802188 -0.61091,-0.802188 h -0.41109 l 0.85072,1.113357 v 1.027713 h 0.34257 v -1.024859 l 0.85357,-1.116211 z"
                 style="font-style:normal;font-variant:normal;font-weight:normal;font-stretch:normal;font-family:'Ano Bold';-inkscape-font-specification:'Ano Bold, ';fill:#dce1ec;fill-opacity:1;stroke-width:0.0713691"
                 id="path1798" />
            </g>
            <path
               id="path1802"
               style="font-style:normal;font-variant:normal;font-weight:normal;font-stretch:normal;font-size:5.8299px;line-height:1.25;font-family:'Ano Regular';-inkscape-font-specification:'Ano Regular, ';letter-spacing:0px;word-spacing:0px;fill:#dce1ec;fill-opacity:1;stroke:none;stroke-width:0.25106"
               d="m 200.31312,94.467255 c 0,-2.189227 -1.77749,-3.966719 -3.96672,-3.966719 -2.18923,0 -3.96672,1.777492 -3.96672,3.966719 0,2.18923 1.77749,3.966722 3.96672,3.966722 2.18923,0 3.96672,-1.777492 3.96672,-3.966722 z m -0.80338,0 c 0,1.797579 -1.41598,3.263759 -3.16334,3.263759 -1.74736,0 -3.16333,-1.46618 -3.16333,-3.263759 0,-1.797577 1.41597,-3.263756 3.16333,-3.263756 1.74736,0 3.16334,1.466179 3.16334,3.263756 z" />
          </g>
          <path
             d="m 207.29882,90.701382 h -0.80339 V 96.8975 l -4.06714,-6.196118 h -0.80339 v 7.531748 h 0.80339 v -6.186075 l 4.06714,6.186075 h 0.80339 z"
             style="font-style:normal;font-variant:normal;font-weight:normal;font-stretch:normal;font-size:5.8299px;line-height:1.25;font-family:'Ano Regular';-inkscape-font-specification:'Ano Regular, ';letter-spacing:0px;word-spacing:0px;fill:#dce1ec;fill-opacity:1;stroke:none;stroke-width:0.25106"
             id="path1806" />
          <path
             d="m 213.06923,97.530167 h -3.36418 v -2.711429 h 3.06291 v -0.702963 h -3.06291 v -2.71143 h 3.36418 v -0.702963 h -4.16757 v 7.531748 h 4.16757 z"
             style="font-style:normal;font-variant:normal;font-weight:normal;font-stretch:normal;font-size:5.8299px;line-height:1.25;font-family:'Ano Regular';-inkscape-font-specification:'Ano Regular, ';letter-spacing:0px;word-spacing:0px;fill:#dce1ec;fill-opacity:1;stroke:none;stroke-width:0.25106"
             id="path1808" />
        </g>
        <g
           id="g1820">
          <path
             d="m 220.63801,94.467255 c 0,-2.068719 -1.67707,-3.765873 -3.75582,-3.765873 h -2.61101 v 7.531748 h 2.61101 c 2.07875,0 3.75582,-1.687111 3.75582,-3.765875 z m -1.72728,0 c 0,1.174954 -0.94398,2.118932 -2.11893,2.118932 h -0.79335 v -4.237862 h 0.79335 c 1.17495,0 2.11893,0.954021 2.11893,2.11893 z"
             style="font-style:normal;font-variant:normal;font-weight:normal;font-stretch:normal;font-size:5.8299px;line-height:1.25;font-family:'Ano Black';-inkscape-font-specification:'Ano Black, ';letter-spacing:0px;word-spacing:0px;fill:#4f9fee;fill-opacity:1;stroke:none;stroke-width:0.25106"
             id="path1812" />
          <path
             d="m 225.71316,90.701382 h -1.80763 l -2.86207,7.531748 h 1.83776 l 0.40169,-1.064486 h 3.04282 l 0.39166,1.064486 h 1.84778 z m -1.81766,4.830361 0.91384,-2.420202 0.90382,2.420202 z"
             style="font-style:normal;font-variant:normal;font-weight:normal;font-stretch:normal;font-size:5.8299px;line-height:1.25;font-family:'Ano Black';-inkscape-font-specification:'Ano Black, ';letter-spacing:0px;word-spacing:0px;fill:#4f9fee;fill-opacity:1;stroke:none;stroke-width:0.25106"
             id="path1814" />
          <path
             d="m 232.31144,95.190303 c 0.93393,-0.281185 1.6168,-1.154867 1.6168,-2.189227 0,-1.265333 -1.02432,-2.299694 -2.28963,-2.299694 h -2.48047 v 7.531748 h 1.72728 v -2.118932 l 1.67708,2.118932 h 2.14905 z m -0.1105,-2.189227 c 0,0.411736 -0.25106,0.652752 -0.56238,0.652752 h -0.75317 v -1.305503 h 0.75317 c 0.31132,0 0.56238,0.241015 0.56238,0.652751 z"
             style="font-style:normal;font-variant:normal;font-weight:normal;font-stretch:normal;font-size:5.8299px;line-height:1.25;font-family:'Ano Black';-inkscape-font-specification:'Ano Black, ';letter-spacing:0px;word-spacing:0px;fill:#4f9fee;fill-opacity:1;stroke:none;stroke-width:0.25106"
             id="path1816" />
          <path
             d="m 238.75845,90.701382 -2.00846,2.36999 v -2.36999 h -1.72729 v 7.531748 h 1.72729 v -2.339863 l 1.98839,2.339863 h 2.17918 l -3.19346,-3.755832 3.21354,-3.775916 z"
             style="font-style:normal;font-variant:normal;font-weight:normal;font-stretch:normal;font-size:5.8299px;line-height:1.25;font-family:'Ano Black';-inkscape-font-specification:'Ano Black, ';letter-spacing:0px;word-spacing:0px;fill:#4f9fee;fill-opacity:1;stroke:none;stroke-width:0.25106"
             id="path1818" />
        </g>
      </g>
      <g
         id="g1790">
        <path
           id="path1824"
           style="font-style:normal;font-variant:normal;font-weight:normal;font-stretch:normal;font-size:10.5833px;line-height:1.25;font-family:'Ano Black';-inkscape-font-specification:'Ano Black, ';fill:#4f9fee;fill-opacity:1;stroke:none;stroke-width:0.171201"
           d="m 6.0294424,2.568037 c 0,-1.4106927 -1.1436221,-2.568008872565 -2.56116,-2.568008872565 H 1.7851565 V 5.1360473 h 1.6831259 c 1.4175379,0 2.56116,-1.1504695 2.56116,-2.5680103 z m -1.1778576,0 c 0,0.8012186 -0.6437136,1.4449327 -1.4449349,1.4449327 H 2.3364893 v -2.889866 h 1.0701606 c 0.8012213,0 1.4449349,0.6505625 1.4449349,1.4449333 z"
           sodipodi:nodetypes="ssccssssccss" />
        <path
           id="path1826"
           style="font-style:normal;font-variant:normal;font-weight:normal;font-stretch:normal;font-size:10.5833px;line-height:1.25;font-family:'Ano Black';-inkscape-font-specification:'Ano Black, ';fill:#3d8ad5;fill-opacity:1;stroke:none;stroke-width:0.171201"
           d="M 2.0300435,1.255144e-5 1.6876461,0.00635735 V 1.0924146 C 1.876678,1.0921558 2.0300435,1.2454526 2.0300435,1.4344813 V 5.1360358 H 3.0666136 C 3.1729317,4.9320827 3.2265932,4.6974519 3.2080542,4.451231 V 4.0128603 H 2.3364893 V 1.1231724 H 3.2023729 C 3.1322897,0.52831193 2.6497261,0.04664426 2.0300435,2.3144399e-7 Z"
           sodipodi:nodetypes="cccsccccccccc" />
        <path
           d="M 1.852148,1.255144e-5 1.6876461,0.00635735 V 1.0924146 C 1.876678,1.0921558 2.0300435,1.2454526 2.0300435,1.4344813 V 5.1360358 H 2.8887173 C 2.9950362,4.9320827 3.0486959,4.6974519 3.0301587,4.451231 V 4.0128603 H 2.1585938 V 1.1231724 H 3.0244775 C 2.9543925,0.52831193 2.4075378,2.3144399e-7 1.852148,2.3144399e-7 Z"
           style="font-style:normal;font-variant:normal;font-weight:normal;font-stretch:normal;font-size:10.5833px;line-height:1.25;font-family:'Ano Black';-inkscape-font-specification:'Ano Black, ';fill:#2d7bc5;fill-opacity:1;stroke:none;stroke-width:0.171201"
           id="path1828"
           sodipodi:nodetypes="cccsccccccccc" />
        <path
           inkscape:original-d="M 1.6877949,2.2554433e-6 1.1470667,0.00944201 0.10799299,1.0937135 1.3453905,1.0924815 c 0.1890319,-2.581e-4 0.3424044,0.152908 0.3424044,0.3419373 V 5.8208335 C 2.3912578,5.7679015 2.9185985,5.1546923 2.8656498,4.4512261 V 1.3696243 C 2.9185792,0.66616151 2.3912578,0.05296662 1.6877949,1.5103439e-5 Z"
           inkscape:path-effect="#path-effect1836"
           sodipodi:nodetypes="ccccccccsc"
           id="path1830"
           style="font-style:normal;font-variant:normal;font-weight:normal;font-stretch:normal;font-size:10.5833px;line-height:1.25;font-family:'Ano Black';-inkscape-font-specification:'Ano Black, ';fill:#dce1ec;fill-opacity:1;stroke:none;stroke-width:0.171201"
           d="M 1.6877949,2.2554433e-6 1.4116097,0.00482375 A 0.63531929,0.63531929 156.39022 0 0 0.96400189,0.2004698 L 0.2910578,0.90268571 A 0.11275169,0.11275169 66.861767 0 0 0.37257619,1.0934501 L 1.3453905,1.0924815 c 0.1890319,-2.581e-4 0.3424044,0.152908 0.3424044,0.3419373 V 5.8208335 C 2.3912578,5.7679015 2.9185985,5.1546923 2.8656498,4.4512261 V 1.3696243 C 2.9185792,0.66616151 2.3912578,0.05296662 1.6877949,1.5103439e-5 Z" />
      </g>
    </g>
  </g>
</svg>
