<?xml version="1.0" encoding="UTF-8" standalone="no"?>
<svg
   xmlns:dc="http://purl.org/dc/elements/1.1/"
   xmlns:cc="http://creativecommons.org/ns#"
   xmlns:rdf="http://www.w3.org/1999/02/22-rdf-syntax-ns#"
   xmlns:svg="http://www.w3.org/2000/svg"
   xmlns="http://www.w3.org/2000/svg"
   xmlns:sodipodi="http://sodipodi.sourceforge.net/DTD/sodipodi-0.dtd"
   xmlns:inkscape="http://www.inkscape.org/namespaces/inkscape"
   sodipodi:docname="icon_search.svg"
   inkscape:version="1.0 (4035a4fb49, 2020-05-01)"
   id="svg8"
   version="1.1"
   viewBox="0 0 6.6145832 3.9687499"
   height="15"
   width="25">
  <defs
     id="defs2" />
  <sodipodi:namedview
     inkscape:window-maximized="1"
     inkscape:window-y="-8"
     inkscape:window-x="1912"
     inkscape:window-height="1027"
     inkscape:window-width="1920"
     units="px"
     showgrid="false"
     inkscape:document-rotation="0"
     inkscape:current-layer="layer1"
     inkscape:document-units="mm"
     inkscape:cy="10"
     inkscape:cx="10"
     inkscape:zoom="39.690974"
     inkscape:pageshadow="2"
     inkscape:pageopacity="0"
     borderopacity="1.0"
     bordercolor="#666666"
     pagecolor="#3b3b3b"
     id="base" />
  <metadata
     id="metadata5">
    <rdf:RDF>
      <cc:Work
         rdf:about="">
        <dc:format>image/svg+xml</dc:format>
        <dc:type
           rdf:resource="http://purl.org/dc/dcmitype/StillImage" />
        <dc:title></dc:title>
      </cc:Work>
    </rdf:RDF>
  </metadata>
  <g
     id="layer1"
     inkscape:groupmode="layer"
     inkscape:label="Layer 1">
    <path
       id="path835"
       style="color:#000000;font-style:normal;font-variant:normal;font-weight:normal;font-stretch:normal;font-size:medium;line-height:normal;font-family:sans-serif;font-variant-ligatures:normal;font-variant-position:normal;font-variant-caps:normal;font-variant-numeric:normal;font-variant-alternates:normal;font-variant-east-asian:normal;font-feature-settings:normal;font-variation-settings:normal;text-indent:0;text-align:start;text-decoration:none;text-decoration-line:none;text-decoration-style:solid;text-decoration-color:#000000;letter-spacing:normal;word-spacing:normal;text-transform:none;writing-mode:lr-tb;direction:ltr;text-orientation:mixed;dominant-baseline:auto;baseline-shift:baseline;text-anchor:start;white-space:normal;shape-padding:0;shape-margin:0;inline-size:0;clip-rule:nonzero;display:inline;overflow:visible;visibility:visible;isolation:auto;mix-blend-mode:normal;color-interpolation:sRGB;color-interpolation-filters:linearRGB;solid-color:#000000;solid-opacity:1;vector-effect:none;fill:#e5e6e7;fill-opacity:1;fill-rule:evenodd;stroke:none;stroke-width:0.205309;stroke-linecap:butt;stroke-linejoin:miter;stroke-miterlimit:4;stroke-dasharray:none;stroke-dashoffset:0;stroke-opacity:1;color-rendering:auto;image-rendering:auto;shape-rendering:auto;text-rendering:auto;enable-background:accumulate;stop-color:#000000"
       d="M 4.1830577,1.5e-8 C 3.7904164,1.5e-8 3.3967045,0.15241321 3.09781,0.45130858 2.7989074,0.75020428 2.6458333,1.1434324 2.6458333,1.5362093 c 0,0.3927766 0.1515131,0.7771147 0.4519767,1.0849006 0.2983156,0.2983156 0.6913607,0.4433467 1.0852477,0.4433467 0.306518,0 0.6112819,-0.087194 0.8640854,-0.2677681 L 5.1172271,2.7459848 6.3401238,3.96875 6.6145833,3.6946963 5.391686,2.4719306 5.440787,2.4023696 C 5.6223841,2.1408714 5.7102103,1.8345644 5.7102103,1.5362093 5.7102103,1.1421916 5.5645223,0.74962538 5.2662072,0.45130858 4.967312,0.15241261 4.5757072,1.5e-8 4.1830577,1.5e-8 Z m 0,0.384680865 c 0.2902663,0 0.5879952,0.1110113 0.8103686,0.3419386 0.2203605,0.2212072 0.3315335,0.51307362 0.3315335,0.80958982 0,0.2902 -0.1116652,0.5808497 -0.3315335,0.8091705 l -0.00167,0.00167 C 4.7694287,2.5693759 4.473365,2.6797729 4.1830603,2.6797729 c -0.2903047,0 -0.5884668,-0.110397 -0.8107883,-0.3327195 l -0.00168,-0.00167 C 3.1507277,2.117059 3.0390572,1.8264094 3.0390572,1.5362093 c 0,-0.297217 0.111814,-0.58944731 0.3332122,-0.81084691 0.2222091,-0.22982 0.5212062,-0.3406815 0.8107883,-0.34068151 z" />
  </g>
</svg>
