<?xml version="1.0" encoding="UTF-8" standalone="no"?>
<svg
   xmlns:dc="http://purl.org/dc/elements/1.1/"
   xmlns:cc="http://creativecommons.org/ns#"
   xmlns:rdf="http://www.w3.org/1999/02/22-rdf-syntax-ns#"
   xmlns:svg="http://www.w3.org/2000/svg"
   xmlns="http://www.w3.org/2000/svg"
   xmlns:sodipodi="http://sodipodi.sourceforge.net/DTD/sodipodi-0.dtd"
   xmlns:inkscape="http://www.inkscape.org/namespaces/inkscape"
   width="18"
   height="18"
   viewBox="0 0 4.7624998 4.7625002"
   version="1.1"
   id="svg1123"
   inkscape:version="1.0.2-2 (e86c870879, 2021-01-15)"
   sodipodi:docname="icon_info.svg">
  <defs
     id="defs1117">
    <inkscape:path-effect
       effect="fillet_chamfer"
       id="path-effect845"
       is_visible="true"
       lpeversion="1"
       satellites_param="F,0,1,1,0,0.26458333,0,1 @ F,0,1,1,0,0.26458333,0,1 @ F,0,1,1,0,0.26458333,0,1 @ F,0,1,1,0,0.26458333,0,1 | F,0,0,1,0,0,0,1 @ F,0,0,1,0,0,0,1 @ F,0,0,1,0,0,0,1 @ F,0,0,1,0,0,0,1"
       unit="px"
       method="auto"
       mode="F"
       radius="1"
       chamfer_steps="1"
       flexible="false"
       use_knot_distance="true"
       apply_no_radius="true"
       apply_with_radius="true"
       only_selected="true"
       hide_knots="false" />
  </defs>
  <sodipodi:namedview
     id="base"
     pagecolor="#ffffff"
     bordercolor="#666666"
     borderopacity="1.0"
     inkscape:pageopacity="0.0"
     inkscape:pageshadow="2"
     inkscape:zoom="47.163271"
     inkscape:cx="7.9999996"
     inkscape:cy="11.367157"
     inkscape:document-units="mm"
     inkscape:current-layer="layer1"
     inkscape:document-rotation="0"
     showgrid="false"
     units="px"
     inkscape:window-width="1920"
     inkscape:window-height="1027"
     inkscape:window-x="1912"
     inkscape:window-y="-8"
     inkscape:window-maximized="1" />
  <metadata
     id="metadata1120">
    <rdf:RDF>
      <cc:Work
         rdf:about="">
        <dc:format>image/svg+xml</dc:format>
        <dc:type
           rdf:resource="http://purl.org/dc/dcmitype/StillImage" />
        <dc:title></dc:title>
      </cc:Work>
    </rdf:RDF>
  </metadata>
  <g
     inkscape:label="Layer 1"
     inkscape:groupmode="layer"
     id="layer1">
    <path
       id="path831"
       style="fill:#c3ccdf;stroke-width:3.40858;stroke-linecap:round"
       d="M 2.38125,0 A 2.3812499,2.3812499 0 0 0 0,2.38125 2.3812499,2.3812499 0 0 0 2.38125,4.7625 2.3812499,2.3812499 0 0 0 4.7625,2.38125 2.3812499,2.3812499 0 0 0 2.38125,0 Z m 0,0.67030791 c 0.2262168,0 0.4098587,0.18422327 0.4098587,0.41044009 0,0.2262168 -0.1836419,0.4098587 -0.4098587,0.4098587 -0.2262168,0 -0.4098587,-0.1836419 -0.4098587,-0.4098587 0,-0.22621682 0.1836419,-0.41044009 0.4098587,-0.41044009 z M 2.3254395,1.8016342 h 0.111621 A 0.29765625,0.29765625 0 0 1 2.7347168,2.0992905 V 3.7945359 A 0.29765625,0.29765625 0 0 1 2.4370605,4.0921921 H 2.3254395 A 0.29765625,0.29765625 0 0 1 2.0277832,3.7945359 V 2.0992905 A 0.29765625,0.29765625 0 0 1 2.3254395,1.8016342 Z" />
  </g>
</svg>
