<?xml version="1.0" encoding="UTF-8" standalone="no"?>
<svg
   xmlns:dc="http://purl.org/dc/elements/1.1/"
   xmlns:cc="http://creativecommons.org/ns#"
   xmlns:rdf="http://www.w3.org/1999/02/22-rdf-syntax-ns#"
   xmlns:svg="http://www.w3.org/2000/svg"
   xmlns="http://www.w3.org/2000/svg"
   xmlns:sodipodi="http://sodipodi.sourceforge.net/DTD/sodipodi-0.dtd"
   xmlns:inkscape="http://www.inkscape.org/namespaces/inkscape"
   width="16"
   height="16"
   viewBox="0 0 4.2333332 4.2333335"
   version="1.1"
   id="svg1123"
   inkscape:version="1.0.2-2 (e86c870879, 2021-01-15)"
   sodipodi:docname="icon_heart.svg">
  <defs
     id="defs1117" />
  <sodipodi:namedview
     id="base"
     pagecolor="#ffffff"
     bordercolor="#666666"
     borderopacity="1.0"
     inkscape:pageopacity="0.0"
     inkscape:pageshadow="2"
     inkscape:zoom="52.312503"
     inkscape:cx="7.9999999"
     inkscape:cy="7.9999999"
     inkscape:document-units="mm"
     inkscape:current-layer="layer1"
     inkscape:document-rotation="0"
     showgrid="false"
     units="px"
     inkscape:window-width="1920"
     inkscape:window-height="1027"
     inkscape:window-x="1912"
     inkscape:window-y="-8"
     inkscape:window-maximized="1" />
  <metadata
     id="metadata1120">
    <rdf:RDF>
      <cc:Work
         rdf:about="">
        <dc:format>image/svg+xml</dc:format>
        <dc:type
           rdf:resource="http://purl.org/dc/dcmitype/StillImage" />
        <dc:title></dc:title>
      </cc:Work>
    </rdf:RDF>
  </metadata>
  <g
     inkscape:label="Layer 1"
     inkscape:groupmode="layer"
     id="layer1">
    <path
       fill="var(--ci-primary-color, currentColor)"
       d="m 3.8437761,0.55967259 a 1.124579,1.124579 0 0 0 -1.59099,5.97e-4 l -0.136276,0.137937 -0.135142,-0.137638 -8.79e-4,-8.79e-4 a 1.124579,1.124579 0 0 0 -1.59040098,0 l -0.06071,0.06071 a 1.124579,1.124579 0 0 0 0,1.59039201 l 1.60228798,1.602271 0.180943,0.189579 0.0043,-0.0043 0.0047,0.0047 0.16953,-0.178869 1.61335,-1.613367 a 1.1258705,1.1258705 0 0 0 0,-1.59039201 z m -0.13813,1.45229701 -1.588723,1.588758 -1.58875798,-1.588758 a 0.84343427,0.84343427 0 0 1 0,-1.19279201 l 0.06072,-0.06071 a 0.84343427,0.84343427 0 0 1 1.19234398,-4.48e-4 l 0.334676,0.34077401 0.336267,-0.34032601 a 0.84343427,0.84343427 0 0 1 1.1928,0 l 0.06071,0.0607 a 0.8444007,0.8444007 0 0 1 -3.3e-5,1.19280001 z"
       class="ci-primary"
       id="path1748"
       style="stroke-width:0.00878576;fill:#c3ccdf;fill-opacity:1" />
  </g>
</svg>
