<?xml version="1.0" encoding="UTF-8" standalone="no"?>
<svg
   xmlns:dc="http://purl.org/dc/elements/1.1/"
   xmlns:cc="http://creativecommons.org/ns#"
   xmlns:rdf="http://www.w3.org/1999/02/22-rdf-syntax-ns#"
   xmlns:svg="http://www.w3.org/2000/svg"
   xmlns="http://www.w3.org/2000/svg"
   xmlns:sodipodi="http://sodipodi.sourceforge.net/DTD/sodipodi-0.dtd"
   xmlns:inkscape="http://www.inkscape.org/namespaces/inkscape"
   width="20"
   height="14"
   viewBox="0 0 5.2916665 3.7041665"
   version="1.1"
   id="svg8"
   inkscape:version="1.0 (4035a4fb49, 2020-05-01)"
   sodipodi:docname="icon_add_user.svg">
  <defs
     id="defs2" />
  <sodipodi:namedview
     id="base"
     pagecolor="#3b3b3b"
     bordercolor="#666666"
     borderopacity="1.0"
     inkscape:pageopacity="0"
     inkscape:pageshadow="2"
     inkscape:zoom="40.756193"
     inkscape:cx="10"
     inkscape:cy="8.0371081"
     inkscape:document-units="mm"
     inkscape:current-layer="layer1"
     inkscape:document-rotation="0"
     showgrid="false"
     units="px"
     inkscape:window-width="1920"
     inkscape:window-height="1027"
     inkscape:window-x="1912"
     inkscape:window-y="-8"
     inkscape:window-maximized="1" />
  <metadata
     id="metadata5">
    <rdf:RDF>
      <cc:Work
         rdf:about="">
        <dc:format>image/svg+xml</dc:format>
        <dc:type
           rdf:resource="http://purl.org/dc/dcmitype/StillImage" />
        <dc:title></dc:title>
      </cc:Work>
    </rdf:RDF>
  </metadata>
  <g
     inkscape:label="Layer 1"
     inkscape:groupmode="layer"
     id="layer1">
    <path
       sodipodi:nodetypes="cccccccccccccscccccsccsc"
       d="M 4.0555995,5.0833333e-7 V 0.75128476 H 3.2964916 V 1.2234565 H 4.0555995 V 1.9747407 H 4.5326882 V 1.2234565 h 0.758978 V 0.75128476 H 4.5326882 V 5.0833333e-7 Z M 2.0967948,0.13244095 c -0.4464888,0.002969 -0.8066677,0.36247431 -0.8066677,0.80437131 -7e-5,0.44429304 0.363829,0.80449994 0.8127478,0.80450984 0.4489187,-9.9e-6 0.8128077,-0.3602168 0.8127476,-0.80450984 -1e-5,-0.4442327 -0.3638889,-0.80435053 -0.8127476,-0.80437131 -0.002,-9.9e-6 -0.004,-9.9e-6 -0.006,0 z m -0.0278,1.91481445 C 0.25532983,2.0472554 5.354963e-7,3.7041662 5.354963e-7,3.7041662 H 4.1636992 c 0,0 -0.2810391,-1.6569108 -2.0947044,-1.6569108 z"
       style="fill:#e6e6e6;fill-opacity:1;stroke:#000000;stroke-width:0;stroke-linecap:butt;stroke-linejoin:miter;stroke-miterlimit:4;stroke-dasharray:none;stroke-opacity:1"
       id="path846" />
  </g>
</svg>
