<?xml version="1.0" encoding="UTF-8" standalone="no"?>
<svg
   xmlns:dc="http://purl.org/dc/elements/1.1/"
   xmlns:cc="http://creativecommons.org/ns#"
   xmlns:rdf="http://www.w3.org/1999/02/22-rdf-syntax-ns#"
   xmlns:svg="http://www.w3.org/2000/svg"
   xmlns="http://www.w3.org/2000/svg"
   xmlns:sodipodi="http://sodipodi.sourceforge.net/DTD/sodipodi-0.dtd"
   xmlns:inkscape="http://www.inkscape.org/namespaces/inkscape"
   width="20"
   height="20"
   viewBox="0 0 5.2916665 5.2916664"
   version="1.1"
   id="svg8"
   inkscape:version="1.0 (4035a4fb49, 2020-05-01)"
   sodipodi:docname="icon_settingsr.svg">
  <defs
     id="defs2">
    <inkscape:path-effect
       hide_knots="false"
       only_selected="true"
       apply_with_radius="true"
       apply_no_radius="true"
       use_knot_distance="true"
       flexible="false"
       chamfer_steps="1"
       radius="1"
       mode="F"
       method="auto"
       unit="px"
       satellites_param="F,0,0,1,0,0,0,1 @ F,0,1,1,0,0.26458333,0,1 @ F,0,0,1,0,0,0,1 @ F,0,0,1,0,0,0,1 @ F,0,1,1,0,0.26458333,0,1 @ F,0,1,1,0,0.26458333,0,1 @ F,0,0,1,0,0,0,1 @ F,0,0,1,0,0,0,1 @ F,0,1,1,0,0.26458333,0,1 @ F,0,0,1,0,0,0,1 @ F,0,1,1,0,0.26458333,0,1 @ F,0,0,1,0,0,0,1 @ F,0,0,1,0,0,0,1 @ F,0,1,1,0,0.26458333,0,1 @ F,0,1,1,0,0.26458333,0,1 @ F,0,0,1,0,0,0,1 @ F,0,0,1,0,0,0,1 @ F,0,0,1,0,0,0,1 @ F,0,1,1,0,0.26458333,0,1 @ F,0,0,1,0,0,0,1 @ F,0,1,1,0,0.26458333,0,1 @ F,0,0,1,0,0,0,1 @ F,0,0,1,0,0,0,1 @ F,0,1,1,0,0.26458333,0,1 @ F,0,1,1,0,0.26458333,0,1 @ F,0,0,1,0,0,0,1 @ F,0,0,1,0,0,0,1 @ F,0,0,1,0,0,0,1 @ F,0,1,1,0,0.26458333,0,1 @ F,0,0,1,0,0,0,1 @ F,0,1,1,0,0.26458333,0,1 @ F,0,0,1,0,0,0,1 @ F,0,0,1,0,0,0,1 @ F,0,1,1,0,0.26458333,0,1 @ F,0,1,1,0,0.26458333,0,1 @ F,0,0,1,0,0,0,1 @ F,0,0,1,0,0,0,1 @ F,0,1,1,0,0.26458333,0,1 @ F,0,0,1,0,0,0,1 @ F,0,0,1,0,0,0,1 | F,0,0,1,0,0,0,1 @ F,0,0,1,0,0,0,1 @ F,0,0,1,0,0,0,1 @ F,0,0,1,0,0,0,1"
       lpeversion="1"
       is_visible="true"
       id="path-effect1635"
       effect="fillet_chamfer" />
  </defs>
  <sodipodi:namedview
     id="base"
     pagecolor="#3b3b3b"
     bordercolor="#666666"
     borderopacity="1.0"
     inkscape:pageopacity="0"
     inkscape:pageshadow="2"
     inkscape:zoom="40.756193"
     inkscape:cx="10"
     inkscape:cy="10"
     inkscape:document-units="mm"
     inkscape:current-layer="layer1"
     inkscape:document-rotation="0"
     showgrid="false"
     units="px"
     inkscape:window-width="1920"
     inkscape:window-height="1027"
     inkscape:window-x="1912"
     inkscape:window-y="-8"
     inkscape:window-maximized="1" />
  <metadata
     id="metadata5">
    <rdf:RDF>
      <cc:Work
         rdf:about="">
        <dc:format>image/svg+xml</dc:format>
        <dc:type
           rdf:resource="http://purl.org/dc/dcmitype/StillImage" />
        <dc:title></dc:title>
      </cc:Work>
    </rdf:RDF>
  </metadata>
  <g
     inkscape:label="Layer 1"
     inkscape:groupmode="layer"
     id="layer1">
    <path
       id="path872"
       style="fill:#e6e6e6;fill-opacity:1;stroke:#333333;stroke-width:0;stroke-linecap:round;stroke-miterlimit:4;stroke-dasharray:none"
       d="M 2.6280115,1.0798987e-5 C 2.5343304,6.4896755e-4 2.4408118,0.00626199 2.3478488,0.0168065 2.2027152,0.03326856 2.1300123,0.14971705 2.1299985,0.2662408 2.1299913,0.55113274 1.8990498,0.78208194 1.6141658,0.7820908 1.4986508,0.78213223 1.3893358,0.74363258 1.301207,0.67645227 1.1862838,0.58884666 1.04171,0.53671311 0.93050512,0.63141419 0.8008811,0.74180083 0.68221129,0.86444503 0.57615248,0.99763452 0.48516917,1.1118921 0.5160579,1.2456361 0.59841095,1.3280108 c 0.20144445,0.2014558 0.20144445,0.5280742 0,0.72953 C 0.5167524,2.1391767 0.41226067,2.1891924 0.30248397,2.2039744 0.15927027,2.223259 0.02017503,2.2885925 0.00848632,2.4341886 0.00283791,2.504546 4.2220498e-6,2.5751364 5.33293e-7,2.6457908 1.4369918e-5,2.7454853 0.00566259,2.8450284 0.01689451,2.9439466 0.03337385,3.0890782 0.14976109,3.1618227 0.2661931,3.1618109 c 0.284884,8.8e-6 0.51582547,0.230958 0.51583273,0.5158499 -4.99e-6,0.1154405 -0.038496,0.2246762 -0.10562929,0.3127518 -0.0876003,0.1149273 -0.13973456,0.2595082 -0.0450368,0.370716 0.1103825,0.129627 0.23302209,0.2482998 0.36620659,0.3543614 0.11425468,0.090987 0.24799488,0.060104 0.33036448,-0.022249 0.09462,-0.094613 0.2223009,-0.1487558 0.3560881,-0.1510001 0.1397958,-0.00236 0.2745597,0.052138 0.3734296,0.1510001 0.081631,0.081662 0.1316434,0.1861559 0.1464235,0.2959349 0.019282,0.1432143 0.084618,0.2823107 0.2302139,0.2939996 0.070406,0.00565 0.1410459,0.00849 0.2117494,0.00849 0.099638,-1.43e-5 0.1991239,-0.00566 0.2979864,-0.016878 0.1451323,-0.016472 0.2178695,-0.132855 0.2178472,-0.2492923 7.3e-6,-0.2848919 0.2309487,-0.515841 0.5158327,-0.5158499 0.1154582,-5.9e-6 0.2247125,0.03849 0.3127998,0.1056385 0.1149233,0.087606 0.259497,0.139739 0.3707018,0.045038 C 4.490627,4.5499307 4.6092965,4.4272866 4.7153551,4.2940973 4.8063383,4.1798397 4.7754501,4.0460955 4.6930975,3.9637209 4.491653,3.762265 4.491653,3.4356467 4.6930975,3.2341908 4.7877177,3.1395786 4.9153979,3.0854354 5.0491848,3.083191 5.1612886,3.0813088 5.2714914,3.0031493 5.2831802,2.8575533 5.2888329,2.7871428 5.2916667,2.7164989 5.2916661,2.6457911 5.2916467,2.5461468 5.2859985,2.4466539 5.2747723,2.3477854 5.258293,2.2026539 5.1418323,2.1299454 5.0253138,2.1299211 4.7404293,2.1299128 4.5094872,1.8989635 4.50948,1.6140711 4.5094739,1.4986126 4.5479665,1.3893577 4.61511,1.301269 4.7027106,1.1863419 4.754858,1.0417524 4.6601751,0.93053212 4.5497852,0.80086155 4.4271314,0.68214863 4.2939268,0.57605146 4.1796803,0.48505434 4.0459758,0.51601801 3.9635743,0.59845111 c -0.2014511,0.20145486 -0.5280659,0.20145486 -0.729517,0 C 3.1524224,0.51678717 3.1024087,0.41228854 3.0876298,0.30250541 3.0683503,0.15929076 3.0030158,0.02019523 2.8574199,0.00850627 2.7870664,0.00285804 2.71648,2.446499e-5 2.6458296,2.0798987e-5 c -0.00594,-2.000188233e-5 -0.011879,-2.000188233e-5 -0.017819,0 z M 2.645831,1.7805008 c 0.4778543,6.1e-6 0.8652305,0.3873924 0.8652373,0.86526 C 3.5111499,3.1236909 3.1237479,3.5111748 2.645831,3.5111809 2.167914,3.5111751 1.7805116,3.1236911 1.7805932,2.6457608 1.7806,2.167893 2.1679765,1.7805066 2.645831,1.7805008 Z" />
  </g>
</svg>
