<?xml version="1.0" encoding="UTF-8" standalone="no"?>
<svg
   xmlns:dc="http://purl.org/dc/elements/1.1/"
   xmlns:cc="http://creativecommons.org/ns#"
   xmlns:rdf="http://www.w3.org/1999/02/22-rdf-syntax-ns#"
   xmlns:svg="http://www.w3.org/2000/svg"
   xmlns="http://www.w3.org/2000/svg"
   xmlns:sodipodi="http://sodipodi.sourceforge.net/DTD/sodipodi-0.dtd"
   xmlns:inkscape="http://www.inkscape.org/namespaces/inkscape"
   version="1.1"
   id="Capa_1"
   x="0px"
   y="0px"
   viewBox="0 0 18 18"
   xml:space="preserve"
   sodipodi:docname="icon_widgets.svg"
   width="18"
   height="18"
   inkscape:version="1.0.2-2 (e86c870879, 2021-01-15)"><metadata
   id="metadata43"><rdf:RDF><cc:Work
       rdf:about=""><dc:format>image/svg+xml</dc:format><dc:type
         rdf:resource="http://purl.org/dc/dcmitype/StillImage" /><dc:title></dc:title></cc:Work></rdf:RDF></metadata><defs
   id="defs41" /><sodipodi:namedview
   pagecolor="#ffffff"
   bordercolor="#666666"
   borderopacity="1"
   objecttolerance="10"
   gridtolerance="10"
   guidetolerance="10"
   inkscape:pageopacity="0"
   inkscape:pageshadow="2"
   inkscape:window-width="1920"
   inkscape:window-height="1027"
   id="namedview39"
   showgrid="false"
   inkscape:zoom="1.709928"
   inkscape:cx="244.89999"
   inkscape:cy="244.89999"
   inkscape:window-x="1912"
   inkscape:window-y="-8"
   inkscape:window-maximized="1"
   inkscape:current-layer="Capa_1" />
<g
   id="g6"
   transform="matrix(0.03674969,0,0,0.03674969,9.19e-7,-1.3853197e-5)"
   style="fill:#c3ccdf;fill-opacity:1">
	<g
   id="g4"
   style="fill:#c3ccdf;fill-opacity:1">
		<path
   d="m 489.8,280.92 c 0,-13.9 -11.3,-25.2 -25.2,-25.2 h -74.1 c -62.1,0 -112.4,50.2 -112.7,112.2 -0.1,32.3 -23,61 -55,65 -38.4,4.8 -71.2,-25.2 -71.2,-62.6 v -56.4 c 57.6,-11.7 101,-62.6 101,-123.7 v -64 c 0,-9.1 -7.3,-16.4 -16.4,-16.4 h -31.3 v -79.1 c 0,-12.4 -9,-23.4 -21.3,-24.6 -14.1,-1.4 -26,9.7 -26,23.6 v 80.1 H 95.2 v -79.1 c 0,-12.4 -9,-23.4 -21.4,-24.6 -14.1,-1.3 -26,9.7 -26,23.6 v 80.1 H 16.4 c -9.1,0 -16.4,7.3 -16.4,16.4 v 64 c 0,61.1 43.4,112 101,123.7 v 53.5 c 0,61.5 47.7,114 109.2,116.3 64.6,2.4 118,-49.4 118,-113.5 v -0.9 c 0,-34.9 28.3,-63.1 63.1,-63.1 h 73.2 c 14,-0.1 25.3,-11.4 25.3,-25.3 z"
   id="path2"
   style="fill:#c3ccdf;fill-opacity:1" />
	</g>
</g>
<g
   id="g8">
</g>
<g
   id="g10">
</g>
<g
   id="g12">
</g>
<g
   id="g14">
</g>
<g
   id="g16">
</g>
<g
   id="g18">
</g>
<g
   id="g20">
</g>
<g
   id="g22">
</g>
<g
   id="g24">
</g>
<g
   id="g26">
</g>
<g
   id="g28">
</g>
<g
   id="g30">
</g>
<g
   id="g32">
</g>
<g
   id="g34">
</g>
<g
   id="g36">
</g>
</svg>
