<?xml version="1.0" encoding="UTF-8" standalone="no"?>
<svg
   xmlns:dc="http://purl.org/dc/elements/1.1/"
   xmlns:cc="http://creativecommons.org/ns#"
   xmlns:rdf="http://www.w3.org/1999/02/22-rdf-syntax-ns#"
   xmlns:svg="http://www.w3.org/2000/svg"
   xmlns="http://www.w3.org/2000/svg"
   xmlns:sodipodi="http://sodipodi.sourceforge.net/DTD/sodipodi-0.dtd"
   xmlns:inkscape="http://www.inkscape.org/namespaces/inkscape"
   width="13.5"
   height="15"
   viewBox="0 0 3.5718749 3.9687499"
   version="1.1"
   id="svg8"
   inkscape:version="1.0 (4035a4fb49, 2020-05-01)"
   sodipodi:docname="icon_attachment.svg">
  <defs
     id="defs2">
    <inkscape:path-effect
       effect="fillet_chamfer"
       id="path-effect997"
       is_visible="true"
       lpeversion="1"
       satellites_param="F,0,0,1,0,0.52916667,0,1 @ F,0,0,1,0,0.52916667,0,1 @ F,0,0,1,0,0.52916667,0,1 @ F,0,0,1,0,0.52916667,0,1 @ F,0,0,1,0,0.52916667,0,1 @ F,0,0,1,0,0.52916667,0,1"
       unit="px"
       method="auto"
       mode="F"
       radius="2"
       chamfer_steps="1"
       flexible="false"
       use_knot_distance="true"
       apply_no_radius="true"
       apply_with_radius="true"
       only_selected="false"
       hide_knots="false" />
  </defs>
  <sodipodi:namedview
     id="base"
     pagecolor="#3b3b3b"
     bordercolor="#666666"
     borderopacity="1.0"
     inkscape:pageopacity="0"
     inkscape:pageshadow="2"
     inkscape:zoom="40.756193"
     inkscape:cx="10"
     inkscape:cy="6.0742163"
     inkscape:document-units="mm"
     inkscape:current-layer="layer1"
     inkscape:document-rotation="0"
     showgrid="false"
     units="px"
     inkscape:window-width="1920"
     inkscape:window-height="1027"
     inkscape:window-x="1912"
     inkscape:window-y="-8"
     inkscape:window-maximized="1" />
  <metadata
     id="metadata5">
    <rdf:RDF>
      <cc:Work
         rdf:about="">
        <dc:format>image/svg+xml</dc:format>
        <dc:type
           rdf:resource="http://purl.org/dc/dcmitype/StillImage" />
        <dc:title></dc:title>
      </cc:Work>
    </rdf:RDF>
  </metadata>
  <g
     inkscape:label="Layer 1"
     inkscape:groupmode="layer"
     id="layer1">
    <path
       style="fill:#b3b3b3;fill-opacity:1;stroke-width:0.0141266"
       d="M 1.9238942,3.6438512 C 1.4817394,4.0788611 0.77078579,4.0771313 0.33108571,3.6378512 -0.10849509,3.1987411 -0.11022428,2.4882011 0.325123,2.0463711 L 0.32462607,2.0461013 1.9239736,0.44804118 2.1239828,0.24826119 c 0.3312583,-0.33097001 0.8682002,-0.33097001 1.1994485,0 0.3312583,0.33096999 0.3312583,0.86755011 0,1.19864001 l -1.762994,1.7432803 -4.97e-4,-4.762e-4 C 1.3426791,3.3990211 0.99638489,3.397541 0.78170749,3.1837153 c -0.2146774,-0.2135399 -0.2160289,-0.55777 -0.005963,-0.77355 l -4.865e-4,-7.487e-4 0.1963024,-0.1949301 0.98157111,-0.97555 0.196183,0.19519 -1.17775411,1.1704801 c -0.1084518,0.10764 -0.1084518,0.2823701 0,0.39012 0.10845171,0.10775 0.28430191,0.10775 0.39262441,0 l 1.759178,-1.7482401 -4.995e-4,-3.704e-4 0.00696,-0.006 c 0.2208386,-0.22061 0.2208386,-0.5784901 0,-0.7990801 -0.2208489,-0.2206 -0.5787108,-0.22061 -0.7995596,0 l -0.00596,0.007 L 2.3238068,0.44775554 2.1239123,0.64740507 0.52446539,2.2454751 c -0.33124834,0.33098 -0.33124834,0.86755 0,1.1985199 0.3312583,0.3309702 0.86832941,0.3309702 1.19931941,0 L 3.1232424,2.0457051 3.3231322,1.8460551 3.523022,2.0457051 3.3231322,2.2454751 1.923933,3.643775 c 0,-1.98e-5 -2.484e-4,-2.91e-4 -2.484e-4,-2.91e-4 z"
       id="path1021" />
  </g>
</svg>
