<?xml version="1.0" encoding="UTF-8" standalone="no"?>
<svg
   xmlns:dc="http://purl.org/dc/elements/1.1/"
   xmlns:cc="http://creativecommons.org/ns#"
   xmlns:rdf="http://www.w3.org/1999/02/22-rdf-syntax-ns#"
   xmlns:svg="http://www.w3.org/2000/svg"
   xmlns="http://www.w3.org/2000/svg"
   xmlns:sodipodi="http://sodipodi.sourceforge.net/DTD/sodipodi-0.dtd"
   xmlns:inkscape="http://www.inkscape.org/namespaces/inkscape"
   width="15"
   height="15"
   viewBox="0 0 3.9687499 3.9687498"
   version="1.1"
   id="svg8"
   inkscape:version="1.0 (4035a4fb49, 2020-05-01)"
   sodipodi:docname="icon_emoticons.svg">
  <defs
     id="defs2">
    <inkscape:path-effect
       hide_knots="false"
       only_selected="true"
       apply_with_radius="true"
       apply_no_radius="true"
       use_knot_distance="true"
       flexible="false"
       chamfer_steps="1"
       radius="1"
       mode="F"
       method="auto"
       unit="px"
       satellites_param="F,0,0,1,0,0,0,1 @ F,0,1,1,0,0.26458333,0,1 @ F,0,0,1,0,0,0,1 @ F,0,0,1,0,0,0,1 @ F,0,1,1,0,0.26458333,0,1 @ F,0,1,1,0,0.26458333,0,1 @ F,0,0,1,0,0,0,1 @ F,0,0,1,0,0,0,1 @ F,0,1,1,0,0.26458333,0,1 @ F,0,0,1,0,0,0,1 @ F,0,1,1,0,0.26458333,0,1 @ F,0,0,1,0,0,0,1 @ F,0,0,1,0,0,0,1 @ F,0,1,1,0,0.26458333,0,1 @ F,0,1,1,0,0.26458333,0,1 @ F,0,0,1,0,0,0,1 @ F,0,0,1,0,0,0,1 @ F,0,0,1,0,0,0,1 @ F,0,1,1,0,0.26458333,0,1 @ F,0,0,1,0,0,0,1 @ F,0,1,1,0,0.26458333,0,1 @ F,0,0,1,0,0,0,1 @ F,0,0,1,0,0,0,1 @ F,0,1,1,0,0.26458333,0,1 @ F,0,1,1,0,0.26458333,0,1 @ F,0,0,1,0,0,0,1 @ F,0,0,1,0,0,0,1 @ F,0,0,1,0,0,0,1 @ F,0,1,1,0,0.26458333,0,1 @ F,0,0,1,0,0,0,1 @ F,0,1,1,0,0.26458333,0,1 @ F,0,0,1,0,0,0,1 @ F,0,0,1,0,0,0,1 @ F,0,1,1,0,0.26458333,0,1 @ F,0,1,1,0,0.26458333,0,1 @ F,0,0,1,0,0,0,1 @ F,0,0,1,0,0,0,1 @ F,0,1,1,0,0.26458333,0,1 @ F,0,0,1,0,0,0,1 @ F,0,0,1,0,0,0,1 | F,0,0,1,0,0,0,1 @ F,0,0,1,0,0,0,1 @ F,0,0,1,0,0,0,1 @ F,0,0,1,0,0,0,1"
       lpeversion="1"
       is_visible="true"
       id="path-effect1635"
       effect="fillet_chamfer" />
  </defs>
  <sodipodi:namedview
     id="base"
     pagecolor="#3b3b3b"
     bordercolor="#666666"
     borderopacity="1.0"
     inkscape:pageopacity="0"
     inkscape:pageshadow="2"
     inkscape:zoom="40.756193"
     inkscape:cx="10"
     inkscape:cy="10"
     inkscape:document-units="mm"
     inkscape:current-layer="layer1"
     inkscape:document-rotation="0"
     showgrid="false"
     units="px"
     inkscape:window-width="1920"
     inkscape:window-height="1027"
     inkscape:window-x="1912"
     inkscape:window-y="-8"
     inkscape:window-maximized="1" />
  <metadata
     id="metadata5">
    <rdf:RDF>
      <cc:Work
         rdf:about="">
        <dc:format>image/svg+xml</dc:format>
        <dc:type
           rdf:resource="http://purl.org/dc/dcmitype/StillImage" />
        <dc:title></dc:title>
      </cc:Work>
    </rdf:RDF>
  </metadata>
  <g
     inkscape:label="Layer 1"
     inkscape:groupmode="layer"
     id="layer1">
    <path
       id="path1071"
       style="fill:#b3b3b3;fill-opacity:1;stroke:#ff0000;stroke-width:0;stroke-linecap:round;stroke-miterlimit:4;stroke-dasharray:none"
       d="M 1.97797,1.078855e-6 A 1.9843757,1.9843757 0 0 0 0,1.9843811 1.9843757,1.9843757 0 0 0 1.98437,3.9687512 1.9843757,1.9843757 0 0 0 3.96875,1.9843811 1.9843757,1.9843757 0 0 0 1.98437,1.078855e-6 a 1.9843757,1.9843757 0 0 0 -0.006,0 z M 3.31729,1.2627311 c 0.3474101,0 0.35041,2.5e-4 0.3702,0.0285 0.0401,0.0573 0.025699,0.12378 -0.0685,0.31668 -0.0486,0.0996 -0.0984,0.22263 -0.1107199,0.27348 -0.0306,0.1268 -0.0631,0.19181 -0.13521,0.27072 -0.1204198,0.13177 -0.3096199,0.19978 -0.55494,0.19951 -0.0812,-8e-5 -0.1711799,-0.008 -0.21004,-0.0182 -0.22576,-0.0601 -0.40065,-0.23559 -0.50618,-0.50795 -0.0923,-0.23812 -0.11792,-0.23794 -0.21687,0.001 -0.11412,0.27616 -0.2568,0.4237 -0.48265,0.49909 -0.0947,0.0316 -0.29736,0.0441 -0.41486,0.0255 -0.1202,-0.019 -0.23388,-0.0812 -0.33682,-0.1843 -0.1087,-0.10886 -0.16442,-0.20591 -0.23607,-0.41118 -0.0295,-0.0846 -0.0762,-0.19481 -0.10365,-0.24501 -0.0582,-0.1063 -0.0664,-0.18062 -0.0244,-0.22263 0.0243,-0.0242 0.0427,-0.0256 0.34272,-0.0256 0.46678,2e-5 0.70858,0.0301 1.08021,0.13438 0.13669,0.0384 0.17896,0.0447 0.2973,0.0448 0.12636,8e-5 0.15057,-0.004 0.28827,-0.0499 0.30888,-0.10278 0.5187101,-0.12934 1.02215,-0.12934 z m -2.2529,1.35121 c 0.0226,-9.393e-4 0.0688,0.0251 0.16018,0.0887 0.20103,0.1398199 0.58541,0.2512999 0.76378,0.2512999 0.26715,0 0.47516,-0.0812 0.7197501,-0.22445 C 2.87015,2.634591 2.91309,2.6157111 2.92973,2.632391 c 0.0323,0.0323 -0.10149,0.2286 -0.22356,0.3278499 -0.54731,0.3846801 -1.00529,0.30192 -1.43664,-0.006 -0.12288,-0.091 -0.25601,-0.2962 -0.21727,-0.33493 0.003,-0.003 0.007,-0.005 0.0121,-0.005 z" />
  </g>
</svg>
