<?xml version="1.0" encoding="UTF-8" standalone="no"?>
<svg
   xmlns:dc="http://purl.org/dc/elements/1.1/"
   xmlns:cc="http://creativecommons.org/ns#"
   xmlns:rdf="http://www.w3.org/1999/02/22-rdf-syntax-ns#"
   xmlns:svg="http://www.w3.org/2000/svg"
   xmlns="http://www.w3.org/2000/svg"
   xmlns:sodipodi="http://sodipodi.sourceforge.net/DTD/sodipodi-0.dtd"
   xmlns:inkscape="http://www.inkscape.org/namespaces/inkscape"
   width="25"
   height="15"
   viewBox="0 0 6.6145831 3.9687499"
   version="1.1"
   id="svg8"
   inkscape:version="1.0 (4035a4fb49, 2020-05-01)"
   sodipodi:docname="icon_invisible.svg">
  <defs
     id="defs2" />
  <sodipodi:namedview
     id="base"
     pagecolor="#3b3b3b"
     bordercolor="#666666"
     borderopacity="1.0"
     inkscape:pageopacity="0"
     inkscape:pageshadow="2"
     inkscape:zoom="44.533333"
     inkscape:cx="15"
     inkscape:cy="7.5"
     inkscape:document-units="mm"
     inkscape:current-layer="layer1"
     inkscape:document-rotation="0"
     showgrid="false"
     units="px"
     inkscape:window-width="1920"
     inkscape:window-height="1027"
     inkscape:window-x="1912"
     inkscape:window-y="-8"
     inkscape:window-maximized="1" />
  <metadata
     id="metadata5">
    <rdf:RDF>
      <cc:Work
         rdf:about="">
        <dc:format>image/svg+xml</dc:format>
        <dc:type
           rdf:resource="http://purl.org/dc/dcmitype/StillImage" />
        <dc:title></dc:title>
      </cc:Work>
    </rdf:RDF>
  </metadata>
  <g
     inkscape:label="Layer 1"
     inkscape:groupmode="layer"
     id="layer1">
    <path
       transform="scale(0.26458333)"
       d="M 20 2.5 A 5.0000001 5.0000001 0 0 0 15 7.5 A 5.0000001 5.0000001 0 0 0 20 12.5 A 5.0000001 5.0000001 0 0 0 25 7.5 A 5.0000001 5.0000001 0 0 0 20 2.5 z M 20 5.1054688 A 2.3952096 2.3952096 0 0 1 22.394531 7.5 A 2.3952096 2.3952096 0 0 1 20 9.8945312 A 2.3952096 2.3952096 0 0 1 17.605469 7.5 A 2.3952096 2.3952096 0 0 1 20 5.1054688 z "
       style="fill:#808080;fill-opacity:1;stroke-width:0;stroke-linecap:round"
       id="path1396" />
  </g>
</svg>
