<?xml version="1.0" encoding="UTF-8" standalone="no"?>
<svg
   xmlns:dc="http://purl.org/dc/elements/1.1/"
   xmlns:cc="http://creativecommons.org/ns#"
   xmlns:rdf="http://www.w3.org/1999/02/22-rdf-syntax-ns#"
   xmlns:svg="http://www.w3.org/2000/svg"
   xmlns="http://www.w3.org/2000/svg"
   xmlns:sodipodi="http://sodipodi.sourceforge.net/DTD/sodipodi-0.dtd"
   xmlns:inkscape="http://www.inkscape.org/namespaces/inkscape"
   width="16"
   height="16"
   viewBox="0 0 4.2333332 4.2333335"
   version="1.1"
   id="svg1123"
   inkscape:version="1.0.2-2 (e86c870879, 2021-01-15)"
   sodipodi:docname="icon_save.svg">
  <defs
     id="defs1117" />
  <sodipodi:namedview
     id="base"
     pagecolor="#ffffff"
     bordercolor="#666666"
     borderopacity="1.0"
     inkscape:pageopacity="0.0"
     inkscape:pageshadow="2"
     inkscape:zoom="50.945244"
     inkscape:cx="7.9999999"
     inkscape:cy="7.9999999"
     inkscape:document-units="mm"
     inkscape:current-layer="layer1"
     inkscape:document-rotation="0"
     showgrid="false"
     units="px"
     inkscape:window-width="1920"
     inkscape:window-height="1027"
     inkscape:window-x="1912"
     inkscape:window-y="-8"
     inkscape:window-maximized="1" />
  <metadata
     id="metadata1120">
    <rdf:RDF>
      <cc:Work
         rdf:about="">
        <dc:format>image/svg+xml</dc:format>
        <dc:type
           rdf:resource="http://purl.org/dc/dcmitype/StillImage" />
        <dc:title />
      </cc:Work>
    </rdf:RDF>
  </metadata>
  <g
     inkscape:label="Layer 1"
     inkscape:groupmode="layer"
     id="layer1">
    <path
       id="path1759"
       style="fill:#c3ccdf;fill-opacity:1;stroke-width:0.0333333"
       d="M 1.3339844 0 C 0.89237001 0.00051430825 0.53371744 0.35916689 0.53320312 0.80078125 L 0.53320312 15.199219 C 0.53371737 15.640833 0.89236979 15.999486 1.3339844 16 L 14.666016 16 C 15.10763 15.999486 15.466282 15.640833 15.466797 15.199219 L 15.466797 4.1113281 C 15.467385 3.8990566 15.382939 3.6946016 15.232422 3.5449219 L 11.921875 0.234375 C 11.772195 0.083857583 11.56774 -0.00058789361 11.355469 0 L 1.3339844 0 z M 2.1699219 1.5957031 L 4.2675781 1.5957031 L 4.2675781 5.3339844 L 11.199219 5.3339844 L 11.199219 1.5957031 L 11.246094 1.5957031 L 13.849609 4.2207031 L 13.849609 14.580078 L 2.1699219 14.580078 L 2.1699219 1.5957031 z M 5.765625 1.5957031 L 9.6230469 1.5957031 L 9.6230469 3.8945312 L 5.765625 3.8945312 L 5.765625 1.5957031 z M 7.8671875 6.9335938 C 5.1348907 6.9335938 3.7674272 10.236177 5.6992188 12.167969 C 7.63101 14.09976 10.933594 12.732297 10.933594 10 C 10.931757 8.3070891 9.5600984 6.9354309 7.8671875 6.9335938 z M 7.8652344 8.5234375 C 8.6813058 8.524323 9.3428645 9.1858818 9.34375 10.001953 C 9.34375 11.319063 7.7515363 11.9781 6.8203125 11.046875 C 5.8890879 10.115651 6.548125 8.5234375 7.8652344 8.5234375 z "
       transform="scale(0.26458333)" />
  </g>
</svg>
