<?xml version="1.0" encoding="UTF-8" standalone="no"?>
<svg
   xmlns:dc="http://purl.org/dc/elements/1.1/"
   xmlns:cc="http://creativecommons.org/ns#"
   xmlns:rdf="http://www.w3.org/1999/02/22-rdf-syntax-ns#"
   xmlns:svg="http://www.w3.org/2000/svg"
   xmlns="http://www.w3.org/2000/svg"
   xmlns:sodipodi="http://sodipodi.sourceforge.net/DTD/sodipodi-0.dtd"
   xmlns:inkscape="http://www.inkscape.org/namespaces/inkscape"
   width="25"
   height="19"
   viewBox="0 0 6.6145831 5.0270831"
   version="1.1"
   id="svg8"
   inkscape:version="1.0 (4035a4fb49, 2020-05-01)"
   sodipodi:docname="icon_signal.svg">
  <defs
     id="defs2">
    <inkscape:path-effect
       hide_knots="false"
       only_selected="true"
       apply_with_radius="true"
       apply_no_radius="true"
       use_knot_distance="true"
       flexible="false"
       chamfer_steps="1"
       radius="1"
       mode="F"
       method="auto"
       unit="px"
       satellites_param="F,0,0,1,0,0,0,1 @ F,0,1,1,0,0.26458333,0,1 @ F,0,0,1,0,0,0,1 @ F,0,0,1,0,0,0,1 @ F,0,1,1,0,0.26458333,0,1 @ F,0,1,1,0,0.26458333,0,1 @ F,0,0,1,0,0,0,1 @ F,0,0,1,0,0,0,1 @ F,0,1,1,0,0.26458333,0,1 @ F,0,0,1,0,0,0,1 @ F,0,1,1,0,0.26458333,0,1 @ F,0,0,1,0,0,0,1 @ F,0,0,1,0,0,0,1 @ F,0,1,1,0,0.26458333,0,1 @ F,0,1,1,0,0.26458333,0,1 @ F,0,0,1,0,0,0,1 @ F,0,0,1,0,0,0,1 @ F,0,0,1,0,0,0,1 @ F,0,1,1,0,0.26458333,0,1 @ F,0,0,1,0,0,0,1 @ F,0,1,1,0,0.26458333,0,1 @ F,0,0,1,0,0,0,1 @ F,0,0,1,0,0,0,1 @ F,0,1,1,0,0.26458333,0,1 @ F,0,1,1,0,0.26458333,0,1 @ F,0,0,1,0,0,0,1 @ F,0,0,1,0,0,0,1 @ F,0,0,1,0,0,0,1 @ F,0,1,1,0,0.26458333,0,1 @ F,0,0,1,0,0,0,1 @ F,0,1,1,0,0.26458333,0,1 @ F,0,0,1,0,0,0,1 @ F,0,0,1,0,0,0,1 @ F,0,1,1,0,0.26458333,0,1 @ F,0,1,1,0,0.26458333,0,1 @ F,0,0,1,0,0,0,1 @ F,0,0,1,0,0,0,1 @ F,0,1,1,0,0.26458333,0,1 @ F,0,0,1,0,0,0,1 @ F,0,0,1,0,0,0,1 | F,0,0,1,0,0,0,1 @ F,0,0,1,0,0,0,1 @ F,0,0,1,0,0,0,1 @ F,0,0,1,0,0,0,1"
       lpeversion="1"
       is_visible="true"
       id="path-effect1635"
       effect="fillet_chamfer" />
  </defs>
  <sodipodi:namedview
     id="base"
     pagecolor="#3b3b3b"
     bordercolor="#666666"
     borderopacity="1.0"
     inkscape:pageopacity="0"
     inkscape:pageshadow="2"
     inkscape:zoom="40.756193"
     inkscape:cx="10"
     inkscape:cy="10"
     inkscape:document-units="mm"
     inkscape:current-layer="layer1"
     inkscape:document-rotation="0"
     showgrid="false"
     units="px"
     inkscape:window-width="1920"
     inkscape:window-height="1027"
     inkscape:window-x="1912"
     inkscape:window-y="-8"
     inkscape:window-maximized="1" />
  <metadata
     id="metadata5">
    <rdf:RDF>
      <cc:Work
         rdf:about="">
        <dc:format>image/svg+xml</dc:format>
        <dc:type
           rdf:resource="http://purl.org/dc/dcmitype/StillImage" />
        <dc:title></dc:title>
      </cc:Work>
    </rdf:RDF>
  </metadata>
  <g
     inkscape:label="Layer 1"
     inkscape:groupmode="layer"
     id="layer1">
    <path
       d="M 5.4711558,-1.687739e-5 C 5.3272124,-0.00101688 5.189694,0.13687312 5.2069338,0.28555312 c 0.00306,0.0656 0.040087,0.12236 0.085064,0.16693 0.4703897,0.50085 0.7641067,1.16944008 0.8079604,1.85966008 0.061296,0.83082 -0.2469107,1.67698 -0.8168491,2.2762599 -0.1009117,0.0917 -0.09906,0.2699203 0.00454,0.3588602 0.085538,0.0968 0.2488174,0.10882 0.3421751,0.0171 C 6.3131002,4.2637832 6.6758827,3.2594931 6.6060723,2.2779132 6.5532903,1.4680432 6.2126992,0.68088312 5.6580915,0.09454312 c -0.037894,-0.0422 -0.085301,-0.0794 -0.1422129,-0.0893 -0.014857,-0.004 -0.029813,-0.004999997 -0.0447,-0.004999997 z m -4.3360953,2e-4 C 1.0798105,0.00218312 1.0255979,0.02248312 0.9847593,0.06278312 0.30147234,0.76336312 -0.06130916,1.7676632 0.00851395,2.7492431 c 0.052761,0.8098602 0.39336035,1.5970401 0.94795436,2.18338 0.0379038,0.0422 0.0853007,0.0794 0.14221259,0.0893 C 1.2572188,5.0573231 1.4266121,4.9056432 1.407603,4.7415232 1.404543,4.6759232 1.367516,4.6191733 1.322539,4.5746032 0.85214853,4.0737533 0.55847103,3.4051332 0.51460363,2.7149231 0.45330763,1.8840931 0.76150157,1.037933 1.3314526,0.43865302 c 0.1009118,-0.0917 0.099089,-0.26989 -0.00454,-0.35884 -0.048128,-0.0544 -0.1208613,-0.0821 -0.1919015,-0.0794999974 z M 1.8298776,0.65192312 c -0.053087,0.001 -0.1055496,0.0199 -0.1466066,0.0564 C 1.1524367,1.2405032 0.87860905,2.0213732 0.95941308,2.7733932 1.0177752,3.3491133 1.2751433,3.9026531 1.6797305,4.3119733 c 0.091257,0.0887 0.248845,0.081 0.3349943,-0.011401 C 2.1205116,4.2148733 2.1318491,4.0374532 2.0324073,3.9422133 1.6286795,3.5292032 1.4112659,2.9365632 1.4587982,2.3565231 c 0.034486,-0.47765 0.2451919,-0.93828 0.5770192,-1.2790001 0.092364,-0.0956 0.080944,-0.26534988 -0.020923,-0.34960998 -0.047437,-0.052 -0.1167508,-0.0779 -0.1850023,-0.076 z m 2.9355323,9.896e-4 c -0.061583,0.002 -0.1224991,0.0273 -0.1655703,0.0735 -0.1057994,0.0858 -0.1171243,0.26312 -0.017681,0.35835998 0.4037283,0.4130101 0.621141,1.0056601 0.5736088,1.5857 -0.034476,0.4776599 -0.2451908,0.9383101 -0.5770193,1.2790101 -0.092364,0.0956 -0.080934,0.2653498 0.020951,0.3496199 0.084323,0.0924 0.2377484,0.1027501 0.3315822,0.0196 C 5.4621159,3.7865328 5.7359435,3.0056526 5.6551395,2.2536327 5.5967774,1.6779129 5.3393956,1.1243828 4.9348211,0.71505282 c -0.045639,-0.0444 -0.1078503,-0.0647 -0.169421,-0.0623 z M 4.0881637,1.3041528 c -0.1271865,6.694e-4 -0.2570411,0.10528 -0.2663398,0.23949 -0.00938,0.0805 0.026711,0.15901 0.085449,0.21193 0.2103437,0.21515 0.3285418,0.5217 0.3072159,0.82468 -0.014383,0.26696 -0.1336933,0.52478 -0.3224605,0.7109199 -0.096641,0.094 -0.089697,0.2673401 0.013406,0.3538199 0.086022,0.0952 0.2460492,0.1057802 0.3390236,0.015301 0.3395274,-0.3302302 0.5190301,-0.8208603 0.4724768,-1.2954303 -0.037301,-0.38021 -0.2097559,-0.74917 -0.4880831,-1.00897 -0.041578,-0.0362 -0.090931,-0.052 -0.1406903,-0.0517 z m -1.5693615,6.694e-4 c -0.054519,0.002 -0.1080242,0.022601 -0.1486988,0.062201 -0.3395137,0.33023 -0.5190315,0.82085 -0.4724791,1.29543 0.037301,0.3802099 0.2097173,0.7491801 0.4880594,1.00898 0.1478217,0.1286399 0.3941169,-0.00101 0.4070539,-0.1877599 0.00938,-0.0805 -0.026711,-0.15903 -0.085449,-0.21194 C 2.4969579,3.0565932 2.378748,2.7500332 2.4000727,2.4470532 c 0.014383,-0.26695 0.1336678,-0.5248 0.3224347,-0.71095 0.096641,-0.094 0.089697,-0.26729 -0.013415,-0.35378 -0.048385,-0.0536 -0.1201855,-0.0804 -0.1902971,-0.0774 z m 0.8161002,0.65641 c -0.018591,-6.694e-4 -0.037291,10e-5 -0.05607,0.002 -0.3063486,0.0101 -0.5558318,0.32026 -0.5051373,0.62608 0.032639,0.2869299 0.3159851,0.5109701 0.5989562,0.47188 0.2695583,-0.024 0.4944017,-0.2783499 0.4850091,-0.55271 0.00612,-0.28611 -0.2439501,-0.53989 -0.5227587,-0.54713 z"
       style="fill:#b3b3b3;fill-opacity:1;stroke-width:0.0133103"
       id="path1240" />
  </g>
</svg>
