<?xml version="1.0" encoding="UTF-8" standalone="no"?>
<svg
   xmlns:dc="http://purl.org/dc/elements/1.1/"
   xmlns:cc="http://creativecommons.org/ns#"
   xmlns:rdf="http://www.w3.org/1999/02/22-rdf-syntax-ns#"
   xmlns:svg="http://www.w3.org/2000/svg"
   xmlns="http://www.w3.org/2000/svg"
   xmlns:sodipodi="http://sodipodi.sourceforge.net/DTD/sodipodi-0.dtd"
   xmlns:inkscape="http://www.inkscape.org/namespaces/inkscape"
   width="16"
   height="16"
   viewBox="0 0 4.2333332 4.2333335"
   version="1.1"
   id="svg1123"
   inkscape:version="1.0.2-2 (e86c870879, 2021-01-15)"
   sodipodi:docname="icon_search.svg">
  <defs
     id="defs1117" />
  <sodipodi:namedview
     id="base"
     pagecolor="#ffffff"
     bordercolor="#666666"
     borderopacity="1.0"
     inkscape:pageopacity="0.0"
     inkscape:pageshadow="2"
     inkscape:zoom="52.312834"
     inkscape:cx="8.0000001"
     inkscape:cy="8"
     inkscape:document-units="mm"
     inkscape:current-layer="layer1"
     inkscape:document-rotation="0"
     showgrid="false"
     units="px"
     inkscape:window-width="1920"
     inkscape:window-height="1027"
     inkscape:window-x="1912"
     inkscape:window-y="-8"
     inkscape:window-maximized="1" />
  <metadata
     id="metadata1120">
    <rdf:RDF>
      <cc:Work
         rdf:about="">
        <dc:format>image/svg+xml</dc:format>
        <dc:type
           rdf:resource="http://purl.org/dc/dcmitype/StillImage" />
        <dc:title></dc:title>
      </cc:Work>
    </rdf:RDF>
  </metadata>
  <g
     inkscape:label="Layer 1"
     inkscape:groupmode="layer"
     id="layer1">
    <path
       id="path835"
       style="color:#000000;font-style:normal;font-variant:normal;font-weight:normal;font-stretch:normal;font-size:medium;line-height:normal;font-family:sans-serif;font-variant-ligatures:normal;font-variant-position:normal;font-variant-caps:normal;font-variant-numeric:normal;font-variant-alternates:normal;font-variant-east-asian:normal;font-feature-settings:normal;font-variation-settings:normal;text-indent:0;text-align:start;text-decoration:none;text-decoration-line:none;text-decoration-style:solid;text-decoration-color:#000000;letter-spacing:normal;word-spacing:normal;text-transform:none;writing-mode:lr-tb;direction:ltr;text-orientation:mixed;dominant-baseline:auto;baseline-shift:baseline;text-anchor:start;white-space:normal;shape-padding:0;shape-margin:0;inline-size:0;clip-rule:nonzero;display:inline;overflow:visible;visibility:visible;isolation:auto;mix-blend-mode:normal;color-interpolation:sRGB;color-interpolation-filters:linearRGB;solid-color:#000000;solid-opacity:1;vector-effect:none;fill:#c3ccdf;fill-opacity:1;fill-rule:evenodd;stroke:none;stroke-width:0.218994;stroke-linecap:butt;stroke-linejoin:miter;stroke-miterlimit:4;stroke-dasharray:none;stroke-dashoffset:0;stroke-opacity:1;color-rendering:auto;image-rendering:auto;shape-rendering:auto;text-rendering:auto;enable-background:accumulate;stop-color:#000000"
       d="M 1.6396931,4.2071667e-5 C 1.2208792,4.2071667e-5 0.80092396,0.16261109 0.48210957,0.48143454 0.16327384,0.800258 0,1.2196884 0,1.6386495 0,2.0576106 0.16160985,2.4675692 0.48210957,2.7958645 0.80030529,3.1140693 1.2195565,3.2687664 1.6396931,3.2687664 c 0.326953,0 0.6520287,-0.093012 0.9216913,-0.2856184 l 0.074773,-0.054079 1.30442,1.3042642 0.2927559,-0.292317 -1.3044201,-1.3042749 0.052373,-0.074239 C 3.174992,2.2835717 3.2686768,1.956855 3.2686768,1.6386076 3.2686768,1.2183238 3.113275,0.79959737 2.7950686,0.48139258 2.4762542,0.16256913 2.0585389,1.0166667e-7 1.6397144,1.0166667e-7 Z m 0,0.410321188333 c 0.3096197,0 0.6271968,0.11840947 0.8643903,0.36473232 0.2350494,0.23595492 0.3536302,0.54726912 0.3536302,0.86355392 0,0.3095436 -0.1191034,0.6195671 -0.3536302,0.863106 l -0.00213,0.00213 C 2.2647992,2.7410351 1.9490035,2.8587833 1.6393517,2.8587833 c -0.3096624,0 -0.6276981,-0.1177482 -0.86483828,-0.3548871 l -0.002133,-0.00213 C 0.53785329,2.2582166 0.41873922,1.9481931 0.41873922,1.6386495 c 0,-0.3170314 0.11927406,-0.6287403 0.35542221,-0.8648979 C 1.0111842,0.52861273 1.330116,0.41036326 1.6389997,0.41036326 Z" />
  </g>
</svg>
